<svg id="Lag_1" data-name="Lag 1" xmlns="http://www.w3.org/2000/svg" viewBox="0 0 14 8"><g id="Group_6" data-name="Group 6"><path id="Rectangle_6" data-name="Rectangle 6" d="M1,0H13a1,1,0,0,1,1,1h0a1,1,0,0,1-1,1H1A1,1,0,0,1,0,1H0A1,1,0,0,1,1,0Z"/><path id="Rectangle_7" data-name="Rectangle 7" d="M1,3H13a1,1,0,0,1,1,1h0a1,1,0,0,1-1,1H1A1,1,0,0,1,0,4H0A1,1,0,0,1,1,3Z"/><path id="Rectangle_8" data-name="Rectangle 8" d="M1,6H13a1,1,0,0,1,1,1h0a1,1,0,0,1-1,1H1A1,1,0,0,1,0,7H0A1,1,0,0,1,1,6Z"/></g></svg>