<svg id="Lag_1" data-name="Lag 1" xmlns="http://www.w3.org/2000/svg" viewBox="0 0 165.49 64.36"><defs><style>.cls-1{fill:#fff;}</style></defs><path class="cls-1" d="M18.4,24.89a6.11,6.11,0,0,0-1-2.58,4.06,4.06,0,0,0-3.51-1.54,4.6,4.6,0,0,0-4.62,3.35,13.85,13.85,0,0,0-.66,4.72,12.75,12.75,0,0,0,.66,4.51,4.45,4.45,0,0,0,4.51,3.19,4,4,0,0,0,3.33-1.27A6.23,6.23,0,0,0,18.35,32h6.82A11.15,11.15,0,0,1,23,37.76q-3.15,4.38-9.32,4.38T4.57,38.48A14.73,14.73,0,0,1,1.66,29q0-6.57,3.22-10.23a11.21,11.21,0,0,1,8.87-3.65,13.42,13.42,0,0,1,7.87,2.15q3.06,2.16,3.62,7.62Z"/><path class="cls-1" d="M39.93,25.73a10.65,10.65,0,0,0,2.67-.58A2,2,0,0,0,44,23.25a2.24,2.24,0,0,0-1.11-2.17,6.91,6.91,0,0,0-3.24-.6,4.28,4.28,0,0,0-3.4,1.18A4.87,4.87,0,0,0,35.34,24H28.9a9.82,9.82,0,0,1,1.88-5.51q2.65-3.37,9.14-3.37a16.28,16.28,0,0,1,7.48,1.66q3.27,1.66,3.27,6.28V34.78c0,.81,0,1.8,0,2.95a3.78,3.78,0,0,0,.4,1.79,2.36,2.36,0,0,0,1,.77v1H44.84a7.09,7.09,0,0,1-.43-1.45c-.07-.45-.14-1-.18-1.55A14.08,14.08,0,0,1,41,40.83a9.67,9.67,0,0,1-4.9,1.24,8.48,8.48,0,0,1-5.77-2,7.06,7.06,0,0,1-2.27-5.61,7.27,7.27,0,0,1,3.66-6.82A16.07,16.07,0,0,1,37.64,26ZM44,28.85a7.51,7.51,0,0,1-1.3.65,11.5,11.5,0,0,1-1.79.45l-1.52.28a9.89,9.89,0,0,0-3.07.92A3,3,0,0,0,34.76,34a3,3,0,0,0,1,2.48,3.72,3.72,0,0,0,2.35.76,6.93,6.93,0,0,0,4-1.27q1.84-1.26,1.92-4.61Z"/><path class="cls-1" d="M61.69,33.12a4.39,4.39,0,0,0,.92,2.53C63.44,36.54,65,37,67.22,37a7.11,7.11,0,0,0,3.15-.58,2,2,0,0,0,.22-3.47q-.93-.59-7-2-4.35-1.07-6.13-2.69a5.84,5.84,0,0,1-1.78-4.6,8,8,0,0,1,2.78-6.08Q61.26,15,66.3,15a14.41,14.41,0,0,1,7.81,1.91c2,1.27,3.17,3.47,3.47,6.6H70.9a4,4,0,0,0-.73-2,4.58,4.58,0,0,0-3.76-1.36,5.4,5.4,0,0,0-3.11.68,1.94,1.94,0,0,0-.93,1.59,1.76,1.76,0,0,0,1,1.67,43.66,43.66,0,0,0,7,1.85,12.79,12.79,0,0,1,6,2.83,6.48,6.48,0,0,1,2,4.81,7.75,7.75,0,0,1-2.83,6.2c-1.89,1.6-4.8,2.4-8.75,2.4s-7-.85-8.91-2.54a8.27,8.27,0,0,1-2.88-6.48Z"/><path class="cls-1" d="M104.69,18.47q3.12,3.3,3.12,9.7,0,6.75-3,10.29A9.92,9.92,0,0,1,96.89,42a8.32,8.32,0,0,1-5.1-1.52A10.37,10.37,0,0,1,89.62,38V51.33H83V15.73h6.39V19.5a10.8,10.8,0,0,1,2.32-2.62,8.47,8.47,0,0,1,5.33-1.72A10.13,10.13,0,0,1,104.69,18.47Zm-5.13,4.8A4.77,4.77,0,0,0,95.14,21a5,5,0,0,0-5,3.45,13,13,0,0,0-.71,4.64c0,3,.8,5.05,2.39,6.25a5.45,5.45,0,0,0,3.36,1.06,4.89,4.89,0,0,0,4.3-2.16,10,10,0,0,0,1.48-5.74A10,10,0,0,0,99.56,23.27Z"/><path class="cls-1" d="M129.17,16.24A10.49,10.49,0,0,1,133.59,20a12.65,12.65,0,0,1,2,5.28,33.16,33.16,0,0,1,.22,5.08H117.23c.11,2.56,1,4.35,2.68,5.39a6.77,6.77,0,0,0,3.68,1,5.2,5.2,0,0,0,5.08-2.93h6.82A8.33,8.33,0,0,1,133,38.41q-3.44,3.73-9.62,3.73a13.91,13.91,0,0,1-9-3.14q-3.9-3.15-3.9-10.23,0-6.64,3.52-10.18a12.3,12.3,0,0,1,9.13-3.54A14.65,14.65,0,0,1,129.17,16.24Zm-10,5.77a6.94,6.94,0,0,0-1.78,4h11.51a5.64,5.64,0,0,0-1.78-4,5.86,5.86,0,0,0-4-1.38A5.3,5.3,0,0,0,119.18,22Z"/><path class="cls-1" d="M153.41,15.13l.57,0V22c-.42-.05-.79-.08-1.12-.1l-.8,0c-2.68,0-4.49.88-5.41,2.63a10.13,10.13,0,0,0-.77,4.54V41.27h-6.73V15.73h6.37v4.45a13.92,13.92,0,0,1,2.7-3.49,7.31,7.31,0,0,1,4.87-1.57Z"/><path class="cls-1" d="M155.16,34.27h7.1v7h-7.1Z"/></svg>